<?xml version="1.0" standalone="no"?>
<!DOCTYPE svg PUBLIC "-//W3C//DTD SVG 1.1//EN" "http://www.w3.org/Graphics/SVG/1.1/DTD/svg11.dtd" >
<svg xmlns="http://www.w3.org/2000/svg">
<metadata>Generated by IcoMoon</metadata>
<defs>
<font id="DPW_Font" horiz-adv-x="1024">
<font-face units-per-em="1024" ascent="960" descent="-64" />
<missing-glyph horiz-adv-x="1024" />
<glyph unicode="&#x20;" horiz-adv-x="512" d="" />
<glyph unicode="&#xe600;" glyph-name="btn_dropdown" d="M511.898 85.435l-511.898 716.595h1024l-256-358.298z" />
<glyph unicode="&#xe601;" glyph-name="btn_go" d="M512 901.838c252.659 0 458.105-205.447 458.105-458.105 0-252.605-205.447-458.105-458.105-458.105s-458.105 205.501-458.105 458.105c0 252.659 205.555 458.105 458.105 458.105zM512 955.733c-282.786 0-512-229.268-512-512s229.214-512 512-512 512 229.268 512 512-229.214 512-512 512v0zM159.852 469.818h700.632v-53.895h-700.632v53.895zM822.444 432.309l-265.886 265.811 38.142 38.152 265.886-265.811-38.142-38.152zM556.446 187.077l265.886 265.811 38.142-38.152-265.886-265.811-38.142 38.152z" />
<glyph unicode="&#xe602;" glyph-name="btn_refresh" d="M911.069 257.92c-22.8-53.308-53.583-99.357-92.375-138.149s-84.817-69.575-138.149-92.35c-53.283-22.8-109.493-34.162-168.557-34.162s-115.25 11.362-168.532 34.162c-53.333 22.775-99.382 53.558-138.174 92.35-38.767 38.792-69.575 84.842-92.35 138.149s-34.162 109.493-34.162 168.557c0 59.064 11.387 115.25 34.162 168.557s53.583 99.357 92.35 138.149c38.792 38.792 84.842 69.575 138.174 92.35 53.283 22.775 109.468 34.162 168.532 34.162 99.107 0 187.953-30.533 266.563-91.599l108.843 108.868v-300.325h-300.325l109.618 109.618c-55.060 40.544-116.626 60.816-184.7 60.816-88.596 0-164.177-31.284-226.745-93.851s-93.851-138.149-93.851-226.745c0-88.596 31.284-164.177 93.851-226.745 62.568-62.593 138.149-93.851 226.745-93.851s164.177 31.259 226.77 93.851c62.568 62.568 93.851 138.149 93.851 226.745h112.622c0-59.064-11.387-115.25-34.162-168.557z" />
<glyph unicode="&#xe603;" glyph-name="btn_sort_down" d="M511.927 165.424l-478.939 479.086 51.712 51.712 427.227-427.374 427.374 427.374 51.712-51.712z" />
<glyph unicode="&#xe604;" glyph-name="btn_sort_up" d="M84.699 191.317l-51.712 51.712 479.086 479.013 478.939-479.013-51.712-51.712-427.227 427.301z" />
<glyph unicode="&#xe605;" glyph-name="ico_lock" d="M835.368 192.799c0-59.5-48.236-107.789-107.789-107.789h-431.158c-59.5 0-107.789 48.29-107.789 107.789v161.684c0 59.5 48.29 107.789 107.789 107.789h431.158c59.554 0 107.789-48.29 107.789-107.789v-161.684zM512 189.404c-124.874 0-215.256 167.882-215.256 281.115v94.208c0 118.676 96.579 215.256 215.256 215.256s215.256-96.579 215.256-215.256v-94.208c0-113.233-90.381-281.115-215.256-281.115zM512 726.088c-88.98 0-161.361-72.381-161.361-161.361v-94.208c0-97.118 79.764-227.22 161.361-227.22s161.361 130.102 161.361 227.22v94.208c0 88.98-72.381 161.361-161.361 161.361z" />
<glyph unicode="&#xe606;" glyph-name="ico_production" d="M682.038 844.656l236.49-236.49v-334.471l-236.49-236.49h-334.471l-236.49 236.49v334.471l236.49 236.49h334.471zM704.35 898.551h-379.096l-268.072-268.072v-379.096l268.072-268.072h379.149l268.072 268.072v379.096l-268.126 268.072zM442.53 366.448v-202.321h-72.866v540.941h159.636c137 0 201.566-66.075 201.566-167.613 0-100.406-71.357-171.008-201.566-171.008h-86.771zM442.53 424.6h86.771c83.429 0 128.323 46.403 128.323 112.856 0 69.093-42.253 109.837-128.323 109.837h-86.771v-222.693z" />
<glyph unicode="&#xe607;" glyph-name="ico_sandbox" d="M682.038 844.656l236.49-236.49v-334.471l-236.49-236.49h-334.471l-236.49 236.49v334.471l236.49 236.49h334.471zM704.35 898.551h-379.096l-268.072-268.072v-379.096l268.072-268.072h379.149l268.072 268.072v379.096l-268.126 268.072zM639.138 620.508c-4.527-7.545-9.054-11.318-16.977-11.318-16.923 0-43.008 41.176-112.101 41.176-65.698 0-100.406-37.349-100.406-84.184 0-120.778 259.341-59.284 259.341-237.784 0-95.178-66.075-170.253-181.194-170.253-69.848 0-128.701 27.217-169.499 70.602l21.127 34.762c4.15 5.659 9.809 9.809 16.977 9.809 21.127 0 50.176-54.326 133.605-54.326 69.093 0 110.215 39.99 110.215 98.897 0 130.964-258.533 52.817-258.533 244.628 0 76.584 60.039 148.696 167.235 148.696 60.362 0 110.592-19.618 147.941-55.889l-17.731-34.816z" />
<glyph unicode="&#xe608;" glyph-name="ico_search" d="M442.965 854.016c188.245 0 341.333-153.088 341.333-341.333s-153.088-341.333-341.333-341.333-341.333 153.088-341.333 341.333c0 188.16 153.088 341.333 341.333 341.333zM442.965 939.349c-235.691 0-426.667-190.891-426.667-426.667 0-235.691 190.976-426.667 426.667-426.667s426.667 190.976 426.667 426.667c0 235.691-190.976 426.667-426.667 426.667v0zM998.315 17.664c13.995-13.995 11.947-38.827-4.949-55.381v0c-16.555-16.64-41.387-18.944-55.381-4.949l-254.037 254.123c-14.165 14.080-12.032 38.912 4.693 55.552v0c16.64 16.64 41.472 18.859 55.637 4.779l254.037-254.123z" />
<glyph unicode="&#xe609;" glyph-name="info" d="M512 955.733c-281.6 0-512-230.4-512-512s230.4-512 512-512 512 230.4 512 512-230.4 512-512 512zM568.32 218.453c-35.84-40.96-66.56-66.56-97.28-66.56-20.48 0-30.72 15.36-30.72 46.080 0 10.24 5.12 51.2 15.36 112.64l15.36 122.88 5.12 30.72 5.12 25.6c0 10.24 0 20.48 0 25.6 0 15.36-5.12 20.48-10.24 20.48-25.6 0-46.080-25.6-76.8-76.8-5.12 5.12-10.24 10.24-10.24 15.36 0 20.48 15.36 40.96 51.2 71.68s61.44 46.080 81.92 46.080c20.48 0 35.84-15.36 35.84-46.080 0-5.12 0-20.48-5.12-35.84l-5.12-30.72c0 0 0-15.36-5.12-35.84l-20.48-128-5.12-30.72c-5.12-30.72-5.12-46.080-5.12-56.32 0-15.36 5.12-20.48 10.24-20.48 25.6 0 51.2 25.6 76.8 81.92 10.24-5.12 10.24-10.24 10.24-15.36 0 0-10.24-20.48-35.84-56.32zM506.88 658.773l35.84 92.16c35.84 15.36 61.44 30.72 81.92 56.32 5.12-5.12 5.12-10.24 5.12-15.36 0-40.96-40.96-81.92-122.88-133.12z" />
<glyph unicode="&#xe60b;" glyph-name="ico_unlock" d="M835.368 192.799c0-59.5-48.236-107.789-107.789-107.789h-431.158c-59.5 0-107.789 48.29-107.789 107.789v161.684c0 59.5 48.29 107.789 107.789 107.789h431.158c59.554 0 107.789-48.29 107.789-107.789v-161.684zM450.344 143.917l-186.745 432.883c-46.996 108.921 3.449 235.897 112.424 282.893s235.897-3.449 282.893-112.371l37.295-86.501-49.475-21.342-37.295 86.501c-35.247 81.651-130.425 119.485-212.076 84.237-81.758-35.247-119.539-130.425-84.291-212.076l186.745-432.936-49.475-21.288z" />
<glyph unicode="&#xe801;" glyph-name="icon_delete" d="M657.172 118.842c17.727 0 30.341 12.336 30.341 29.672v481.857c0 17.336-12.614 29.672-30.341 29.672s-30.341-12.336-30.341-29.672v-481.857c0-17.336 12.614-29.672 30.341-29.672v0 0zM513.454 118.842c17.727 0 30.341 12.336 30.341 29.672v481.857c0 17.336-12.614 29.672-30.341 29.672s-30.341-12.336-30.341-29.672v-481.857c0-17.336 12.614-29.672 30.341-29.672v0 0zM697.798 800.634v16.489c0 46.815-38.611 83.87-85.762 83.87h-209.423c-47.871 0-85.762-37.759-85.762-83.87 0 0 0-16.489 0-16.489-16.854 0-193.454 0-193.454 0-17.727 0-30.341-12.336-30.341-29.672s12.614-29.672 30.341-29.672h80.503l16.438-707.405c-0.002-41.234 35.202-75.662 77.586-75.662h412.693c42.384 0 77.588 34.428 77.588 75.877l20.521 707.19h94.876c17.727 0 30.341 12.336 30.341 29.672s-12.614 29.672-30.341 29.672h-205.804zM369.737 118.842c17.727 0 30.341 12.336 30.341 29.672v481.857c0 17.336-12.614 29.672-30.341 29.672s-30.341-12.336-30.341-29.672v-481.857c0-17.336 12.614-29.672 30.341-29.672v0zM400.547 841.649h209.423c13.037 0 25.080-11.777 25.080-24.527v-16.489h-259.583c0 0 0 16.489 0 16.489 0 12.75 12.043 24.527 25.080 24.527zM712.593 17.567h-412.693c-8.963 0-17.578 8.002-19.027 17.855l-16.34 705.824h482.5l-15.556-707.002c0.043-9.13-8.084-16.677-18.884-16.677z" />
<glyph unicode="&#xe802;" glyph-name="icon_dropDown_arrow" d="M726.109 211.006l-269.964 269.964 37.236 32.582 232.727-242.036 237.382 242.036 32.582-32.582-269.964-269.964zM0 955.733h46.545v-1024h-46.545v1024z" />
<glyph unicode="&#xe805;" glyph-name="icon_window_fold" d="M512 870.4c235.264 0 426.667-191.488 426.667-426.667 0-235.349-191.403-426.667-426.667-426.667s-426.667 191.317-426.667 426.667c0 235.179 191.403 426.667 426.667 426.667v0zM512 955.733c-282.709 0-512-229.376-512-512s229.291-512 512-512c282.624 0 512 229.376 512 512 0 282.795-229.376 512-512 512v0 0zM751.71 586.79l-15.091 15.146-232.115-232.298h30.182l-232.115 232.298-76.718-76.999 293.491-293.301 15.080 15.080-14.829 15.341-15.085-15.085 15.336-15.336 293.491 293.301-61.627 61.852z" />
<glyph unicode="&#xe806;" glyph-name="icon_window_open" d="M512 870.4c235.264 0 426.667-191.403 426.667-426.667s-191.403-426.667-426.667-426.667c-235.264 0-426.667 191.403-426.667 426.667s191.403 426.667 426.667 426.667v0zM512 955.733c-282.709 0-512-229.376-512-512s229.291-512 512-512c282.624 0 512 229.376 512 512s-229.376 512-512 512v0 0zM240.929 336.133l61.677-61.564 232.074 232.074-30.173 0.003 232.002-232.094 76.68 76.68-290.62 290.62-14.808-9.872 11.834-17.75 9.541 19.081-14.092 7.046-289.23-289.136 15.115-15.087z" />
<glyph unicode="&#xe900;" glyph-name="checkBox" d="M828.297 55.293h-698.809c-36.090 0-65.33 29.256-65.33 65.372v698.683c0 36.116 29.24 65.372 65.33 65.372h698.809c36.103 0 65.372-29.269 65.372-65.372v-698.683c0-36.103-29.269-65.372-65.372-65.372v-73.143c76.499 0 138.515 62.016 138.515 138.515v698.683c0 76.499-62.016 138.515-138.515 138.515h-698.809c-76.495 0-138.473-62.013-138.473-138.515v-698.683c0-76.502 61.978-138.515 138.473-138.515h698.809v73.143z" />
<glyph unicode="&#xe901;" glyph-name="checkBox_check" d="M373.578 209.455c-1.27 0.008-2.512 0.086-3.724 0.232 1.125-0.156 2.287-0.233 3.49-0.233 0.078 0 0.156 0 0.234 0.001zM391.267 214.991c0.203 0.149 0.404 0.301 0.604 0.455l9.129-8.368c-7.439-8.115-16.769-12.253-27.656-12.253-10.869 0-20.248 4.167-27.474 12.062l-162.863 165.281c-7.381 7.537-11.121 16.888-11.121 27.721s3.741 20.184 11.157 27.757c7.455 7.507 16.71 11.321 27.454 11.321s19.999-3.813 27.476-11.342l137.096-139.206-1.299-1.316-1.76 1.788 369.065 373.89c7.403 7.507 16.702 11.339 27.43 11.339 10.752 0 20.047-3.819 27.532-11.357 7.364-7.52 11.121-16.78 11.121-27.382 0-10.544-3.711-19.977-11.142-28.081l-395.244-400.418-5.206 5.138v6.769c0.014 0.015 0.028 0.030 0.042 0.045v-14.128h-0.042l-4.299 10.285zM828.297 55.293h-698.809c-36.090 0-65.33 29.256-65.33 65.372v698.683c0 36.116 29.24 65.372 65.33 65.372h698.809c36.103 0 65.372-29.269 65.372-65.372v-698.683c0-36.103-29.269-65.372-65.372-65.372v-73.143c76.499 0 138.515 62.016 138.515 138.515v698.683c0 76.499-62.016 138.515-138.515 138.515h-698.809c-76.495 0-138.473-62.013-138.473-138.515v-698.683c0-76.502 61.978-138.515 138.473-138.515h698.809v73.143z" />
<glyph unicode="&#xe902;" glyph-name="icon_group" d="M256.768 361.472c35.755 0 64.768-29.013 64.768-64.768v-194.304h-129.536v194.304c0 35.755 29.013 64.768 64.768 64.768zM427.307 426.24c35.797 0 64.768-28.971 64.768-64.768v-259.072h-129.536v259.072c0 35.797 29.013 64.768 64.768 64.768zM768.427 620.586c35.755 0 64.768-29.013 64.768-64.811v-453.376h-129.536v453.376c0 35.797 28.971 64.811 64.768 64.811zM660.267 685.312v-582.912h-129.536v582.912c0 35.797 29.013 64.811 64.768 64.811s64.768-29.013 64.768-64.811z" />
<glyph unicode="&#xe903;" glyph-name="icon_stack" d="M192.080 251.733h640v-128h-640v128zM192.080 422.4h640v-128h-640v128zM192.080 593.066h640v-128h-640v128zM192.080 763.733h640v-128h-640v128z" />
<glyph unicode="&#xe904;" glyph-name="arrow_rightsvg" d="M870.304 443.637l-716.608-511.904v1024l716.608-512.096z" />
<glyph unicode="&#xe905;" glyph-name="icon_add" d="M109.728 407.157c-20.192 0-36.576 16.384-36.576 36.576s16.384 36.576 36.576 36.576h365.728v365.728c0 20.192 16.384 36.576 36.576 36.576s36.576-16.384 36.576-36.576v-365.728h365.728c20.192 0 36.576-16.384 36.576-36.576s-16.384-36.576-36.576-36.576h-365.728v-365.728c0-20.192-16.384-36.576-36.576-36.576s-36.576 16.384-36.576 36.576v365.728h-365.728z" />
<glyph unicode="&#xe906;" glyph-name="icon_minus" d="M182.848 407.157h658.272c20.192 0 36.576 16.384 36.576 36.576s-16.384 36.576-36.576 36.576h-658.272c-20.192 0-36.576-16.384-36.576-36.576s16.384-36.576 36.576-36.576v0z" />
<glyph unicode="&#xe907;" glyph-name="i-info-h" d="M1024 443.733v0c0-282.123-229.877-512-512-512s-512 229.877-512 512 229.876 512 512 512c282.123 0 512-229.878 512-512zM512 590.019c-20.198 0-36.571-7.363-36.571-50.388v-339.321c0-39.436 16.964-49.147 36.571-49.147 20.198 0 36.571 12.368 36.571 49.147v339.321c0 44.898-16.964 50.388-36.571 50.388zM475.429 699.733c0-20.198 16.374-36.571 36.571-36.571s36.571 16.374 36.571 36.571c0 20.198-16.374 36.571-36.571 36.571s-36.571-16.374-36.571-36.571z" />
<glyph unicode="&#xe908;" glyph-name="i-info" d="M1024 443.733v0c0-282.123-229.877-512-512-512s-512 229.877-512 512 229.876 512 512 512c282.123 0 512-229.878 512-512zM950.857 443.733c0 241.819-197.038 438.857-438.857 438.857s-438.857-197.038-438.857-438.857c0-241.82 197.037-438.857 438.857-438.857s438.857 197.038 438.857 438.857v0zM512 590.019c-20.198 0-36.571-7.363-36.571-50.388v-339.321c0-39.436 16.964-49.147 36.571-49.147 20.198 0 36.571 12.368 36.571 49.147v339.321c0 44.898-16.964 50.388-36.571 50.388zM475.429 699.733c0 20.198 16.374 36.571 36.571 36.571s36.571-16.374 36.571-36.571c0-20.198-16.374-36.571-36.571-36.571s-36.571 16.374-36.571 36.571z" />
<glyph unicode="&#xe909;" glyph-name="icon-exclamation" d="M512-68.267c-282.77 0-512 229.23-512 512s229.23 512 512 512c282.77 0 512-229.23 512-512s-229.23-512-512-512zM554.056 331.424l30.873 405.258c3.026 42.432-27.896 72.766-73.293 72.766-48.422 0-75.575-32.986-72.55-72.766l29.764-405.258c0-17.974 6.472-33.977 42.786-33.977 33.288 0 42.42 10.108 42.42 33.977zM512 78.516c40.396 0 73.143 32.636 73.143 72.894s-32.747 72.894-73.143 72.894c-40.396 0-73.143-32.636-73.143-72.894s32.747-72.894 73.143-72.894z" />
<glyph unicode="&#xe90a;" glyph-name="icon_circle_plus" d="M512 4.876v0c242.374 0 438.857 196.483 438.857 438.857s-196.483 438.857-438.857 438.857c-242.374 0-438.857-196.483-438.857-438.857s196.483-438.857 438.857-438.857v0zM548.571 480.304v219.397c0 19.722-16.374 36.603-36.571 36.603-19.607 0-36.571-16.388-36.571-36.603v-219.397h-219.397c-19.722 0-36.603-16.374-36.603-36.571 0-19.607 16.388-36.571 36.603-36.571h219.397v-219.397c0-19.722 16.374-36.603 36.571-36.603 19.607 0 36.571 16.388 36.571 36.603v219.397h219.397c19.722 0 36.603 16.374 36.603 36.571 0 19.607-16.388 36.571-36.603 36.571h-219.397zM512-68.267c-282.77 0-512 229.23-512 512s229.23 512 512 512c282.77 0 512-229.23 512-512s-229.23-512-512-512z" />
<glyph unicode="&#xe90b;" glyph-name="icon_arrow_right" d="M318.647 941.984l-99.203-99.385 412.744-412.744 0.003 27.414-412.762-412.6 112.936-112.936 511.339 511.339-511.334 512.661-13.724-13.749z" />
<glyph unicode="&#xe90c;" glyph-name="icon_circle_arrow_right" d="M950.857 443.733c0-241.986-196.871-438.857-438.857-438.857s-438.857 196.871-438.857 438.857c0 241.986 196.871 438.857 438.857 438.857s438.857-196.871 438.857-438.857v0zM1024 443.733c0 282.709-229.376 512-512 512s-512-229.291-512-512c0-282.624 229.376-512 512-512s512 229.376 512 512v0 0zM380.711 674.832l-14.98-15.028 14.994-15.014c0 0 205.14-196.885 199.763-202.267-66.587-66.649-199.76-199.946-199.76-199.946l-15.014-15.028 76.287-76.388 276.829 277.196 12.598 15.376-12.596 15.272-276.843 277.299-61.279-61.473z" />
<glyph unicode="&#xe90d;" glyph-name="icon_login_head" d="M769.516 87.553c110.184 79.777 181.862 209.468 181.862 355.9 0 242.507-196.591 439.097-439.097 439.097s-439.097-196.591-439.097-439.097c0-146.041 71.296-275.43 180.98-355.259 67.442 31.193 142.614 46.713 161.037 96.239 2.864 31.617 1.785 53.683 1.785 82.574-14.357 7.512-41.032 55.429-45.347 95.872-11.258 0.922-28.989 11.906-34.206 55.272-2.785 23.282 8.355 36.384 15.122 40.502-38.070 146.515-17.123 274.455 156.537 277.652 43.405 0 76.808-11.592 89.851-34.501 126.744-17.613 88.693-188.057 70.374-243.152 6.786-4.119 17.927-17.221 15.122-40.502-5.198-43.366-22.948-54.35-34.206-55.272-4.335-40.463-29.989-88.36-44.307-95.872 0-28.891-1.098-50.957 1.765-82.574 18.528-49.867 94.314-65.271 161.826-96.879zM512.28-68.828v0c-282.925 0-512.28 229.356-512.28 512.28s229.356 512.28 512.28 512.28c282.925 0 512.28-229.356 512.28-512.28s-229.356-512.28-512.28-512.28v0z" />
<glyph unicode="&#xe90e;" glyph-name="icon_logout" d="M829.024 369.198h-536.452v147.507h543.934l-78.746 83.193 56.327 63.263 165.503-174.851 44.161-47.749-35.639-41.407-165.503-174.851-64.849 69.605 71.264 75.288zM658.286 614.4v341.333h-658.286v-1024h658.286v341.333h-146.286v-195.048h-363.886v731.429h363.886v-195.048h146.286z" />
<glyph unicode="&#xe90f;" glyph-name="icon_profile" d="M598.073 358.444c18.223 9.561 50.875 70.52 56.391 122.019 14.329 1.173 36.92 15.153 43.535 70.346 3.57 29.631-10.609 46.306-19.246 51.549 23.315 70.121 71.744 287.049-89.567 309.466-16.6 29.157-59.112 43.91-114.355 43.91-221.022-4.069-247.683-166.902-199.23-353.376-8.612-5.242-22.791-21.917-19.246-51.549 6.64-55.193 29.207-69.172 43.535-70.346 5.492-51.474 39.442-112.458 57.714-122.019 0-36.77 1.373-64.854-2.272-105.094-31.478-84.624-193.139-91.24-286.4-172.844-55.774-51.187-68.933-148.773-68.933-148.773h954.185c0 0-21.478 100.086-67.59 147.949-92.688 82.353-254.722 88.743-286.275 173.667-3.645 40.24-2.247 68.324-2.247 105.094z" />
<glyph unicode="&#xe910;" glyph-name="icon_organization" d="M855.771 312.076c-14.629 0-29.257 0-43.886-7.314l-175.543 307.2c29.257 29.257 51.2 73.143 51.2 124.343 0 95.086-73.143 168.229-168.229 168.229s-168.229-73.143-168.229-168.229c0-51.2 21.943-87.771 51.2-124.343l-175.543-307.2c-14.629 0-29.257 7.314-43.886 7.314-95.086 0-168.229-73.143-168.229-168.229s73.143-168.229 168.229-168.229c80.457 0 146.286 58.514 168.229 131.657h351.086c14.629-73.143 87.771-131.657 168.229-131.657 95.086 0 168.229 73.143 168.229 168.229-14.629 95.086-87.771 168.229-182.857 168.229zM702.171 224.304c-7.314-21.943-14.629-43.886-14.629-43.886h-351.086c0 0-7.314 21.943-14.629 43.886s-29.257 36.571-29.257 36.571l175.543 314.514c0 0 21.943-7.314 43.886-7.314s43.886 7.314 43.886 7.314l175.543-314.514c0 0-21.943-21.943-29.257-36.571z" />
<glyph unicode="&#xe911;" glyph-name="icon_sandbox_account" d="M548.571-68.267v519.705l438.857 222.083v-519.856l-438.857-221.932zM36.571 673.597l438.857-222.083v-518.572l-438.857 235.907v504.748zM75.886 735.991l434.322 219.742 436.114-219.742-434.322-219.742-436.114 219.742z" />
<glyph unicode="&#xe912;" glyph-name="icon_status_error" d="M512 392.013l-155.137-155.137c-14.294-14.294-37.878-13.887-51.742-0.023-14.282 14.282-13.923 37.797 0.023 51.742l155.137 155.137-155.137 155.137c-14.294 14.294-13.887 37.878-0.023 51.742 14.282 14.282 37.797 13.923 51.742-0.023l155.137-155.137 155.137 155.137c14.294 14.294 37.878 13.887 51.742 0.023 14.282-14.282 13.923-37.797-0.023-51.742l-155.137-155.137 155.137-155.137c14.294-14.294 13.887-37.878 0.023-51.742-14.282-14.282-37.797-13.923-51.742 0.023l-155.137 155.137zM149.961 81.694c199.948-199.948 524.129-199.948 724.077 0s199.948 524.129 0 724.077c-199.948 199.948-524.129 199.948-724.077 0s-199.948-524.129 0-724.077z" />
<glyph unicode="&#xe913;" glyph-name="icon_status_success" d="M512-68.267c-282.77 0-512 229.23-512 512s229.23 512 512 512c282.77 0 512-229.23 512-512s-229.23-512-512-512zM470.791 340.97l-107.7 107.7c-12.444 12.444-32.902 12.814-45.292 0.424-12.028-12.028-12.2-32.668 0.424-45.292l129.132-129.132c11.939-11.939 31.252-12.764 43.743-1.872 2.052 1.231 3.984 2.726 5.745 4.487l261.973 261.973c11.825 11.825 11.962 32.050-0.428 44.44-12.028 12.028-32.286 12.582-44.44 0.428l-243.157-243.157z" />
<glyph unicode="&#xe914;" glyph-name="announcement" horiz-adv-x="896" d="M329.66 562.917l-304.367-100.004c-17.39-4.354-26.093-21.739-21.739-34.786l73.915-217.409c4.354-17.39 21.739-21.739 39.134-17.39l56.526 17.39 47.833-147.837c4.354-17.39 21.739-21.739 39.134-17.39l82.619 26.093c17.39 4.354 21.739 21.739 17.39 34.786l-52.172 147.837 113.051 34.786 269.581-52.172c17.39 0 26.093 8.693 17.39 26.093l-160.884 491.332c-4.354 17.39-17.39 17.39-30.432 8.693l-186.964-200.009zM738.385 810.758c-8.693 8.693-21.739 8.693-26.093 0-8.693-8.693-8.693-21.739 0-26.093 0 0 165.223-152.184 130.44-404.372 0-8.693 4.354-21.739 17.39-21.739 4.354 0 4.354 0 8.693 0 8.693 4.354 13.047 8.693 13.047 17.39 39.134 269.581-134.791 430.465-143.483 434.807zM764.478 441.172c0-8.693-8.693-13.047-13.047-17.39-4.354 0-4.354 0-8.693 0-8.693 0-17.39 13.047-17.39 21.739 17.39 130.44-65.218 208.708-69.572 213.056-8.693 8.693-8.693 21.739 0 26.093 8.693 8.693 21.739 8.693 26.093 0 4.354 0 100.004-91.312 82.619-243.489z" />
<glyph unicode="&#xe915;" glyph-name="usecase_CallReporting" d="M745.856 69.571h-467.712c-34.432 0-62.354 27.904-62.354 62.354v623.616c0 34.432 27.922 62.354 62.354 62.354h280.631c41.509 0 51.566-20.224 62.318-30.921 58.789-58.569 125.422-125.678 155.922-156.178 27.538-27.538 31.177-62.354 31.177-62.354v-436.517c0.055-34.45-27.904-62.354-62.336-62.354zM745.856 568.442h-124.709c-34.469 0-62.354 27.922-62.354 62.354v124.727c-0.183 0-0.366 0-0.53 0-108.745 0-248.887 0-248.887 0-17.207 0-31.177-13.97-31.177-31.159v-561.243c0-17.207 13.97-31.177 31.177-31.177h405.339c17.17 0 31.177 13.97 31.177 31.177-0.037-0.037-0.037 248.649-0.037 405.321zM652.325 381.397h-280.613c-17.225 0-31.195 13.989-31.195 31.141 0 17.225 13.97 31.195 31.195 31.195h280.613c17.207 0 31.177-13.97 31.177-31.195 0-17.189-13.934-31.141-31.177-31.141zM371.712 319.024h155.867c17.207 0 31.177-13.97 31.177-31.141 0-17.243-13.97-31.177-31.177-31.177h-155.867c-17.225 0-31.195 13.934-31.195 31.177 0 17.17 13.952 31.141 31.195 31.141z" />
<glyph unicode="&#xe916;" glyph-name="usecase_Click-to-dial" d="M350.007 281.594c232.686-232.777 428.965-262.656 494.135-202.423 18.469 17.152 51.035 68.645 57.033 89.49 6.327 21.303-2.999 43.026-21.394 55.168-55.899 36.535-110.098 76.251-162.011 118.107-16.987 13.824-39.205 13.294-56.155-0.567-19.858-16.219-31.616-42.789-50.999-63.506-15.689-16.603-74.898-18.103-179.785 84.608-102.638 104.942-101.138 164.206-84.462 179.858 20.498 19.529 47.141 31.214 63.488 51.255 13.806 16.914 14.263 39.003 0.475 56.137-41.746 51.968-81.426 106.075-118.144 161.975-12.105 18.45-33.792 27.849-55.077 21.614-20.864-6.199-72.119-38.747-89.326-57.143-60.27-65.445-30.354-261.815 202.222-494.574z" />
<glyph unicode="&#xe917;" glyph-name="usecase_CRM" d="M870.894 700.099c0 50.139-52.005 50.139-52.005 50.139h-616.631c0 0-52.005 0-52.005-50.139v-52.041h718.83v52.041h1.81zM973.074 648.058c-29.714 29.714-29.714 29.714-29.714 29.714v-81.737h-863.726v81.737c0 0 0 0-29.714-29.714s-52.005-39.003-39.003-102.144c9.271-63.159 68.718-412.361 78.007-458.789 9.289-52.041 63.159-52.041 63.159-52.041h718.811c0 0 53.888 0 63.177 50.139 9.289 46.464 66.853 395.666 79.854 458.789 11.154 65.061-11.099 74.331-40.85 104.046zM713.033 326.741c0-16.713-13.001-29.714-29.714-29.714h-330.624c0 0 0 0-1.865 0 0 0 0 0-1.902 0h-14.848c-16.713 0-29.714 13.001-29.714 29.714v128.146c0 5.614 5.595 11.136 11.136 11.136h50.139c5.595 0 11.136-5.577 11.136-11.136v-83.529h261.943v83.529c0 5.614 5.614 11.136 11.136 11.136h50.176c5.577 0 11.099-5.577 11.099-11.136v-128.146h1.902zM716.709 852.382h-410.441c0 0-52.005 0-52.005-50.158h512.64c-0.018 50.158-50.194 50.158-50.194 50.158z" />
<glyph unicode="&#xe918;" glyph-name="usecase_SMSFAX" d="M512 882.535c-267.557 0-484.535-180.114-484.535-402.322 0-97.682 41.947-187.191 111.616-256.859l-59.246-135.15c-3.127-8.393-9.399-30.098-1.079-50.743 2.066-5.102 21.87-49.207 82.359-25.6l212.187 82.853c43.941-10.935 90.478-16.933 138.697-16.933 267.611 0 484.535 180.206 484.535 402.432 0 222.171-216.923 402.322-484.535 402.322zM360.302 681.447c0 18.341 14.702 33.225 32.841 33.225h143.104c21.815 0 27.136-10.789 32.823-16.475 30.958-31.232 61.349-66.981 77.458-83.218 14.501-14.665 16.384-33.207 16.384-33.207v-166.126h-32.823c0 45.111 0 121.015 0 166.126h-60.965c-18.121 0-32.859 14.866-32.859 33.207v66.469c-0.073 0-0.183 0-0.293 0-57.307 0-126.427 0-126.427 0-9.070 0-16.402-7.442-16.402-16.622v-249.179h-32.841v265.801zM437.723 482.096h147.822c9.070 0 16.402-7.461 16.402-16.603 0-9.179-7.333-16.622-16.402-16.622h-147.822c-9.070 0-16.402 7.442-16.402 16.622-0.018 9.106 7.314 16.603 16.402 16.603zM421.303 531.943c0 9.161 7.333 16.585 16.402 16.585h82.139c9.051 0 16.384-7.424 16.384-16.585 0-9.198-7.333-16.622-16.384-16.622h-82.139c-9.070 0-16.402 7.387-16.402 16.622zM716.891 315.952c0-18.395-14.72-33.243-32.823-33.243h-344.887c-18.139 0-32.841 14.848-32.841 33.243v33.207c0 18.322 14.702 33.207 32.841 33.207h344.887c18.103 0 32.823-14.885 32.823-33.207v-33.207z" />
<glyph unicode="&#xe919;" glyph-name="icon_refresh" d="M964.433 238.411c-26.42-61.771-62.090-115.131-107.040-160.081s-98.282-80.621-160.081-107.011c-61.742-26.42-126.876-39.585-195.317-39.585s-133.547 13.166-195.288 39.585c-61.8 26.391-115.16 62.061-160.11 107.011-44.922 44.951-80.621 98.311-107.011 160.081s-39.585 126.876-39.585 195.317c0 68.441 13.195 133.547 39.585 195.317s62.090 115.131 107.011 160.081c44.951 44.951 98.311 80.621 160.11 107.011 61.742 26.391 126.847 39.585 195.288 39.585 114.841 0 217.792-35.38 308.882-106.141l126.123 126.152v-348.004h-348.004l127.021 127.021c-63.801 46.981-135.141 70.471-214.023 70.471-102.661 0-190.241-36.251-262.743-108.751s-108.751-160.081-108.751-262.743c0-102.661 36.251-190.241 108.751-262.743 72.501-72.53 160.081-108.751 262.743-108.751s190.241 36.222 262.771 108.751c72.501 72.501 108.751 160.081 108.751 262.743h130.502c0-68.441-13.195-133.547-39.585-195.317h0.001z" />
<glyph unicode="&#xe91a;" glyph-name="icon_status_forward" d="M692.684 402.132l-223.318-223.318c-12.272-12.272-32.712-11.728-44.839 0.398-12.492 12.492-12.306 32.932-0.398 44.839l204.471 204.471-203.753 203.753c-12.272 12.272-11.728 32.712 0.398 44.839 12.492 12.492 32.932 12.306 44.839 0.398l227.088-227.088c12.272-12.272 11.728-32.712-0.398-44.839-1.285-1.285-2.654-2.436-4.089-3.453zM512 955.733c-282.77 0-512-229.23-512-512s229.23-512 512-512c282.77 0 512 229.23 512 512s-229.23 512-512 512z" />
<glyph unicode="&#xe91b;" glyph-name="btn_radio_off" d="M512 4.876v0c242.374 0 438.857 196.483 438.857 438.857s-196.483 438.857-438.857 438.857c-242.374 0-438.857-196.483-438.857-438.857s196.483-438.857 438.857-438.857v0zM512-68.267v0c-282.77 0-512 229.23-512 512s229.23 512 512 512c282.77 0 512-229.23 512-512s-229.23-512-512-512v0z" />
<glyph unicode="&#xe91c;" glyph-name="btn_radio_on" d="M512 4.876v0c242.374 0 438.857 196.483 438.857 438.857s-196.483 438.857-438.857 438.857c-242.374 0-438.857-196.483-438.857-438.857s196.483-438.857 438.857-438.857v0zM512-68.267v0c-282.77 0-512 229.23-512 512s229.23 512 512 512c282.77 0 512-229.23 512-512s-229.23-512-512-512v0zM731.429 443.733c0-121.187-98.242-219.429-219.429-219.429s-219.429 98.242-219.429 219.429c0 121.187 98.242 219.429 219.429 219.429s219.429-98.242 219.429-219.429z" />
<glyph unicode="&#xe91d;" glyph-name="icon_delete_fill" d="M715.361 846.727h223.536c19.254 0 32.955-13.399 32.955-32.229s-13.701-32.229-32.955-32.229h-103.051l-22.289-768.122c0-45.020-38.237-82.415-84.273-82.415h-448.251c-46.036 0-84.273 37.394-84.271 82.181l-17.854 768.356h-87.439c-19.254 0-32.955 13.399-32.955 32.229s13.701 32.229 32.955 32.229h210.122v17.91c0 50.084 41.156 91.096 93.151 91.096h227.467c51.214 0 93.151-40.248 93.151-91.096v-17.91zM392.499 891.276v0c-14.16 0-27.241-12.792-27.241-26.64v-17.91h281.949v17.91c0 13.849-13.081 26.64-27.241 26.64h-227.467zM671.235 106.191c19.254 0 32.955 13.399 32.955 32.229v523.374c0 18.83-13.701 32.229-32.955 32.229s-32.955-13.399-32.955-32.229v-523.374c0-18.83 13.701-32.229 32.955-32.229zM515.134 106.191c19.254 0 32.955 13.399 32.955 32.229v523.374c0 18.83-13.701 32.229-32.955 32.229s-32.955-13.399-32.955-32.229v-523.374c0-18.83 13.701-32.229 32.955-32.229zM359.034 106.191c19.254 0 32.955 13.399 32.955 32.229v523.374c0 18.83-13.701 32.229-32.955 32.229s-32.955-13.399-32.955-32.229v-523.374c0-18.83 13.701-32.229 32.955-32.229z" />
<glyph unicode="&#xe91e;" glyph-name="icon_warning_exclamation" d="M510.073 225.902c40.959 0 59.58 22.339 59.58 55.852l37.238 592.058c3.724 59.578-40.959 81.921-96.816 81.921-59.58 0-85.641-26.067-81.919-81.921l18.616-592.058c0-29.791 18.621-55.852 63.302-55.852zM510.073 129.084c-63.303 0-96.816-33.511-96.816-100.535 0-67.026 33.515-96.816 96.816-96.816 59.58 0 96.813 29.791 96.813 96.816-3.724 70.748-37.235 100.535-96.813 100.535z" />
<glyph unicode="&#xe91f;" glyph-name="icon_triangle_exclamation" d="M17.354-36.669c102.424 189.825 448.867 832.497 465.443 863.152 19.588 36.227 36.259 41.066 58.377 0.054 9.14-16.947 448.438-834.789 466.644-864.777s-2.383-29.988-11.665-29.988h-963.781c-10.791 0-33.635-2.947-15.017 31.559zM511.737 154.34c20.346 0 29.596 11.097 29.596 27.744l18.498 294.099c1.85 29.595-20.346 40.693-48.092 40.693-29.596 0-42.541-12.948-40.692-40.693l9.247-294.099c0-14.798 9.25-27.744 31.444-27.744zM511.737 106.247c-31.445 0-48.092-16.646-48.092-49.94s16.648-48.092 48.092-48.092c29.596 0 48.091 14.798 48.091 48.092-1.85 35.143-18.496 49.94-48.091 49.94z" />
<glyph unicode="&#xe920;" glyph-name="icon_api_explorer" d="M874.205 443.264c-2.418-4.871-4.674-9.43-6.424-12.987l-156.531-318.214c-7.273-14.785 0.491-26.73 17.317-26.73h91.425c16.945 0 36.352 11.967 43.614 26.73l156.531 318.214c2.403 4.886 3.164 9.461 2.499 13.398 0.69 3.965-0.074 8.584-2.499 13.514l-156.531 318.214c-7.273 14.785-26.788 26.73-43.614 26.73h-91.425c-16.945 0-24.579-11.967-17.317-26.73l156.531-318.214c1.13-2.298 3.498-7.455 6.424-13.924zM149.572 444.202c2.418 4.871 4.674 9.43 6.424 12.987l156.531 318.214c7.273 14.785-0.491 26.73-17.317 26.73h-91.425c-16.945 0-36.352-11.967-43.614-26.73l-156.531-318.214c-2.403-4.886-3.164-9.461-2.499-13.398-0.69-3.965 0.074-8.584 2.499-13.514l156.531-318.214c7.273-14.785 26.788-26.73 43.614-26.73h91.425c16.945 0 24.579 11.967 17.317 26.73l-156.531 318.214c-1.13 2.298-3.498 7.455-6.424 13.924zM635.276 802.133c19.979 0 32.596-14.318 28.010-32.662l-162.869-651.476c-4.51-18.039-24.055-32.662-44.341-32.662h-71.008c-19.979 0-32.596 14.318-28.010 32.662l162.869 651.476c4.51 18.039 24.055 32.662 44.341 32.662h71.008z" />
<glyph unicode="&#xe921;" glyph-name="icon_api_guide" d="M475.478 480.196l-168.237 168.237-307.216-716.837 716.837 307.216-168.237 168.237c0 0 0 0 0 0l168.237-168.237 307.216 716.837-716.837-307.216 168.237-168.237c11.758 11.758 27.768 16.671 43.080 14.741l-138.871 138.871 563.229 241.384-241.384-563.229-138.167 138.167c1.931-15.312-2.983-31.322-14.741-43.080zM519.786 494.767c-20.653 20.667-37.135 37.202-37.049 37.242 29.263 13.531 69.408 3.183 95.146-22.554 25.754-25.754 33.912-65.722 22.534-95.208-0.008-0.020-16.548 16.478-37.224 37.13-1.591 10.548-6.447 20.698-14.568 28.82-8.126 8.126-18.284 12.983-28.839 14.571zM548.18 407.494c-20.199-20.199-52.504-20.643-72.703-0.444s-19.201 51.95 0.997 72.149c0 0 71.705-71.705 71.705-71.705z" />
<glyph unicode="&#xe922;" glyph-name="icon_pdf" d="M917.806 726.657c-22.212 30.292-53.174 65.7-87.178 99.704s-69.412 64.964-99.704 87.178c-51.574 37.82-76.592 42.194-90.924 42.194h-496c-44.112 0-80-35.888-80-80v-864c0-44.112 35.888-80 80-80h736c44.112 0 80 35.888 80 80v624c0 14.332-4.372 39.35-42.194 90.924v0zM896 11.733c0-8.672-7.328-16-16-16h-736c-8.672 0-16 7.328-16 16v864c0 8.672 7.328 16 16 16 0 0 495.956 0.002 496 0v-224c0-17.672 14.326-32 32-32h224v-624zM317.001 184.222c50.469 0 78.117 27.355 78.117 66.267 0 39.351-25.015 64.951-78.117 64.951h-61.879v-209.627h28.233v78.409h33.646zM283.355 293.059h33.646c33.353 0 49.737-15.799 49.737-42.569 0-25.746-17.408-43.739-49.737-43.739h-33.646v86.309zM612.645 210.554c0 62.757-41.691 104.887-103.278 104.887h-78.409v-209.627h78.409c61.586 0 103.278 41.984 103.278 104.741zM583.534 210.554c0-51.493-29.111-81.774-74.167-81.774h-49.883v163.694h49.883c45.056 0 74.167-30.427 74.167-81.92zM780.434 315.44v-23.113h-100.645v-73.289h86.016v-23.113h-86.016v-90.112h-28.526v209.627h129.17z" />
<glyph unicode="&#xe923;" glyph-name="icon_quickstart_tutorial" d="M118.154 270.435v257.693l-118.154 41.776h1024l-512-181.029-354.462 125.327v-243.768c11.772-18.708 19.692-49.526 19.692-64.416 0-22.218-17.633-40.229-39.385-40.229s-39.385 18.011-39.385 40.229c0 14.89 7.92 45.708 19.692 64.416zM512 750.933l512-181.029h-1024l512 181.029zM783.213 467.138c0-59.181 0-154.797 0-154.797l-270.283-105.591-276.622 105.591v154.21l38.613-12.409v-116.521l238.010-84.059 235.666 84.846v115.734l34.617 12.997z" />
<glyph unicode="&#xe924;" glyph-name="icon_quickstart" d="M0 955.733h128v-1024h-128v1024zM717.824 306.792c84.412 0 161.735 20.355 205.745 55.060l13.926 10.982v581.416l-59.218-46.7c-29.275-23.087-91.059-39.352-160.453-39.352-10.841 0-24.925 1.23-41.285 3.524-10.953 1.536-22.627 3.504-34.699 5.803-18.897 3.598-34.87 7.197-44.318 9.541-2.63 0.759-9.244 2.537-18.169 4.801-14.782 3.749-30.723 7.494-47.267 10.993-21.135 4.471-41.737 8.217-61.301 11-24.13 3.432-45.975 5.302-65.168 5.302-96.376 0-184.35-19.851-234.097-53.48l-16.090-10.877v-576.552l57.053 38.567c35.745 24.164 110.065 40.934 193.134 40.934 14.072 0 31.742-1.375 52.035-3.936 14.411-1.819 29.754-4.184 45.601-6.966 23.762-4.17 43.766-8.341 55.635-11.072 9.673-3.063 29.467-8.54 53.112-14.016 16.98-3.933 33.535-7.257 49.298-9.779 20.967-3.354 39.897-5.193 56.527-5.193zM672.85 384.21c-13.965 2.234-28.907 5.234-44.347 8.81-21.779 5.044-40.008 10.089-50.698 13.366-15.536 3.67-36.732 8.089-61.911 12.508-16.937 2.972-33.419 5.514-49.085 7.491-23.082 2.913-43.626 4.512-61.194 4.512-96.376 0-177.044-24.511-177.044-24.511v409.982c0 0 93.975 29.651 177.044 29.651 15.325 0 33.887-1.589 54.867-4.573 17.807-2.533 36.833-5.992 56.463-10.145 26.61-5.629 48.8-11.257 61.856-14.933 11.755-2.935 28.973-6.814 49.356-10.695 13.175-2.508 26.001-4.671 38.223-6.385 19.444-2.726 36.692-4.232 51.442-4.232 84.413 0 146.528 21.312 146.528 21.312v-409.982c0 0-35.048-26.451-146.528-26.451-12.255 0-27.524 1.483-44.973 4.275z" />
<glyph unicode="&#xe925;" glyph-name="icon_sdk" d="M997.176 766.55c50.74-117.608 25.706-260.507-73.238-356.057-91.234-88.104-220.508-112-330.858-72.218l-369.279-356.608c-51.793-50.016-133.861-49.057-184.080 2.946-49.871 51.643-48.187 134.176 3.48 184.071l364.734 352.219c-43.181 114.85-16.375 250.496 78.761 342.368 102.671 99.148 253.516 116.982 371.352 54.257l-135.578-130.926c-40.596-39.203-41.767-104.208-2.395-144.979 39.647-41.055 104.279-41.965 144.974-2.666l132.128 127.594z" />
<glyph unicode="&#xe926;" glyph-name="facebook" horiz-adv-x="512" d="M352 763.733h160v192h-160c-123.52 0-224-100.48-224-224v-96h-128v-192h128v-512h192v512h160l32 192h-192v96c0 17.344 14.656 32 32 32v0z" />
<glyph unicode="&#xe927;" glyph-name="google_plus" d="M325.824 480.039v-111.808h184.832c-7.424-48-55.808-140.608-184.832-140.608-111.168 0-201.984 92.224-201.984 205.824s90.816 205.824 201.984 205.824c63.424 0 105.6-27.008 129.792-50.176l88.384 85.184c-56.832 52.992-130.368 85.184-218.176 85.184-180.224-0.192-325.824-145.792-325.824-326.016s145.6-325.824 325.824-325.824c187.968 0 312.832 132.224 312.832 318.4 0 21.376-2.368 37.824-5.184 54.016h-307.648zM1024 489.447h-96v96h-96v-96h-96v-96h96v-96h96v96h96v96z" />
<glyph unicode="&#xe928;" glyph-name="linkedin" d="M365.714 626.59h202.386v-103.717h2.926c28.16 50.542 97.061 103.717 199.826 103.717 213.65 0 253.147-132.974 253.147-305.957v-352.329h-211.017v312.32c0 74.459-1.536 170.35-109.714 170.35-109.861 0-126.683-81.115-126.683-164.937v-317.733h-210.871v658.286zM0 626.59h219.429v-658.286h-219.429v658.286zM219.429 809.447c0-60.562-49.152-109.714-109.714-109.714s-109.714 49.152-109.714 109.714c0 60.562 49.152 109.714 109.714 109.714s109.714-49.152 109.714-109.714v0z" />
<glyph unicode="&#xe929;" glyph-name="twitter" d="M1024 784.247c-37.623-16.828-78.188-28.025-120.546-33.016 43.381 25.978 76.589 67.183 92.393 116.195-40.566-23.994-85.611-41.59-133.343-50.995-38.39 40.822-92.969 66.159-153.37 66.159-116.003 0-209.932-93.993-209.932-209.932 0-16.38 1.792-32.376 5.375-47.796-174.548 8.83-329.326 92.393-432.916 219.529-17.98-30.968-28.409-67.183-28.409-105.574 0-72.814 36.983-137.182 93.353-174.74-34.423 1.024-66.799 10.621-95.208 26.169v-2.623c0-101.799 72.366-186.769 168.534-205.965-17.596-4.799-36.215-7.422-55.41-7.422-13.565 0-26.617 1.408-39.606 3.775 26.809-83.371 104.358-144.156 196.175-145.948-71.982-56.37-162.391-89.962-260.927-89.962-17.020 0-33.592 1.024-50.163 3.007 93.161-59.761 203.533-94.376 322.095-94.376 386.271 0 597.675 320.112 597.675 597.675 0 9.214-0.192 18.171-0.576 27.193 41.014 29.369 76.589 66.415 104.742 108.581l0.064 0.064z" />
<glyph unicode="&#xe92a;" glyph-name="youtube" d="M780.177 254.431v0c7.334 0 12.786-2.159 15.997-6.753 3.404-4.317 5.12-11.734 5.12-22.030v-24.797h-42.704v24.797c0 10.295 1.633 17.712 4.982 22.030 3.376 4.594 8.912 6.753 16.605 6.753zM613.625 255.289v0c-3.487 0-6.891-0.72-10.24-2.352-3.349-1.605-6.67-4.124-9.963-7.5v-153.074c3.902-3.93 7.749-6.947 11.485-8.662 3.709-1.744 7.555-2.657 11.651-2.657 5.923 0 10.24 1.716 13.008 5.231 2.768 3.432 4.234 8.995 4.234 16.91v126.865c0 8.275-1.716 14.613-5.12 18.875-3.515 4.262-8.579 6.365-15.056 6.365zM758.618 162.603l92.381-0.083v62.658c0 23.303-5.895 41.154-17.768 53.552-11.901 12.426-28.893 18.653-51.006 18.653-21.67 0-39.244-6.698-52.888-20.12-13.644-13.395-20.535-30.831-20.535-52.086v-110.315c0-23.718 6.31-42.288 18.709-55.739 12.426-13.533 29.502-20.231 51.117-20.231 24.050 0 42.15 6.31 54.189 19.013 12.177 12.814 18.183 31.772 18.183 56.984v12.62h-49.678v-11.209c0-14.502-1.688-23.801-4.843-28.035-3.183-4.234-8.773-6.338-16.771-6.338-7.722 0-13.118 2.435-16.384 7.445-3.127 5.037-4.705 14.004-4.705 26.956v46.274zM672.131 56.412v0c7.583 9.299 11.375 22.611 11.375 39.991v136.33c0 20.12-3.985 35.453-12.122 45.942-8.026 10.406-19.677 15.637-35.010 15.637-7.5 0-14.89-1.91-22.279-5.84-7.279-3.847-14.142-9.603-20.701-17.076v107.243h-48.82v-332.994h48.82v18.847c6.282-7.583 13.257-13.063 20.646-16.633 7.362-3.598 15.747-5.314 25.24-5.314 14.336 0 25.351 4.566 32.851 13.866zM459.997 45.646l48.211 0.028v245.705h-48.266v-186.645c-4.622-5.314-9.548-9.686-15-13.146-5.424-3.487-9.963-5.203-13.506-5.203-4.483 0-7.777 1.273-9.908 3.902-1.937 2.629-2.961 6.808-2.961 12.648v188.444h-48.266v-205.409c0-14.696 2.878-25.545 8.441-32.906 5.757-7.389 14.059-10.96 25.268-10.96 9.078 0 18.404 2.518 28.063 7.805 9.714 5.148 18.93 12.758 27.925 22.749v-27.011zM292.781 330.263h56.292v48.377h-167.050v-48.377h56.292v-284.617h54.466v284.617zM516.345 485.855c0 0.028 334.322-0.498 374.009-40.13 39.825-39.715 40.268-235.631 40.268-236.765 0 0-0.332-196.968-40.268-236.793-39.687-39.576-374.009-40.434-374.009-40.434s-334.294 0.858-374.064 40.462c-39.798 39.715-39.881 235.299-39.881 236.793 0 1.135 0.111 197.051 39.881 236.765 39.798 39.604 374.064 40.13 374.064 40.102v0zM779.984 588.892h-54.41v29.89c-9.908-10.987-20.369-19.456-31.274-25.157-10.849-5.757-21.338-8.635-31.55-8.635-12.675 0-22.058 4.041-28.423 12.094-6.338 8.054-9.548 20.12-9.548 36.283v226.166h54.3v-207.485c0-6.393 1.245-11.043 3.515-13.893 2.214-2.878 5.978-4.317 11.043-4.317 3.958 0 9.050 1.91 15.166 5.701 6.089 3.792 11.707 8.635 16.744 14.585v205.409h54.41v-270.64h0.028zM484.601 635.027c3.847-4.068 9.382-6.061 16.605-6.061 7.362 0 13.174 2.076 17.546 6.172 4.345 4.207 6.504 9.908 6.504 17.104v147.428c0 5.923-2.214 10.71-6.67 14.364-4.428 3.626-10.24 5.424-17.38 5.424-6.67 0-12.039-1.799-16.218-5.424-4.096-3.653-6.227-8.441-6.227-14.364v-147.428c0-7.389 1.993-13.091 5.84-17.214v0zM444.776 847.715c14.613 12.426 34.346 18.653 59.005 18.653 22.473 0 40.96-6.559 55.379-19.677 14.308-13.091 21.504-29.973 21.504-50.591v-139.79c0-23.137-7.057-41.264-21.089-54.466-14.198-13.174-33.543-19.76-58.285-19.76-23.746 0-42.814 6.808-57.123 20.369-14.198 13.616-21.366 31.91-21.366 54.909v140.26c-0.028 21.006 7.279 37.694 21.974 50.093v0zM274.681 955.733h-61.689l72.898-221.488v-145.353h61.246v152.216l71.237 214.625h-62.27l-37.805-146.626h-3.847l-39.77 146.626z" />
<glyph unicode="&#xe92b;" glyph-name="icon-switch_on" d="M0 424.228c0 131.959 107.651 238.933 238.79 238.933h546.42c131.88 0 238.79-107.243 238.79-238.933 0-131.959-107.651-238.933-238.79-238.933h-546.42c-131.88 0-238.79 107.243-238.79 238.933zM300.928 413.476c0 54.912-36.48 93.824-90.496 93.824-53.888 0-90.368-38.912-90.368-93.824 0-55.040 36.48-93.568 90.368-93.568 54.016 0 90.496 38.528 90.496 93.568zM275.456 413.476c0-45.056-25.472-72.064-65.024-72.064-39.424 0-65.024 27.008-65.024 72.064s25.6 72.32 65.024 72.32c39.552 0 65.024-27.264 65.024-72.32zM347.648 505.252h-12.8v-183.424h21.76v130.688c0 3.456-0.128 7.68-0.512 11.904l106.112-138.112c2.56-3.2 4.864-4.48 8.832-4.48h12.544v183.424h-21.76v-129.92c0-3.968 0.128-8.064 0.64-12.544l-106.24 138.24c-2.688 3.456-4.096 4.224-8.576 4.224zM785.067 219.428c113.108 0 204.8 91.692 204.8 204.8s-91.692 204.8-204.8 204.8c-113.108 0-204.8-91.692-204.8-204.8s91.692-204.8 204.8-204.8z" />
<glyph unicode="&#xe92c;" glyph-name="icon-switch_off" d="M0 424.228c0 131.959 107.651 238.933 238.79 238.933h546.42c131.88 0 238.79-107.243 238.79-238.933 0-131.959-107.651-238.933-238.79-238.933h-546.42c-131.88 0-238.79 107.243-238.79 238.933zM241.371 219.428c113.108 0 204.8 91.692 204.8 204.8s-91.692 204.8-204.8 204.8c-113.108 0-204.8-91.692-204.8-204.8s91.692-204.8 204.8-204.8zM662.4 413.476c0 54.912-36.48 93.824-90.496 93.824-53.888 0-90.368-38.912-90.368-93.824 0-55.040 36.48-93.568 90.368-93.568 54.016 0 90.496 38.528 90.496 93.568zM636.928 413.476c0 45.056-25.472 72.32-65.024 72.32-39.424 0-65.024-27.264-65.024-72.32s25.6-72.064 65.024-72.064c39.552 0 65.024 27.008 65.024 72.064zM809.344 505.252h-113.024v-183.424h24.96v78.848h75.264v20.224h-75.264v64.128h88.064v20.224zM954.24 505.252h-113.024v-183.424h24.96v78.848h75.264v20.224h-75.264v64.128h88.064v20.224z" />
<glyph unicode="&#xe92d;" glyph-name="icon_hidden" d="M529.3 734.891c97.528-2.959 192.794-30.386 276.571-79.774 86.196-50.813 158.235-123.446 208.334-210.050l9.080-15.696-9.080-15.696c-45.48-78.621-109.042-145.727-184.861-195.446l-27.067 46.608c55.677 39.933 102.593 91.099 137.2 149.981l7.724 13.141-7.724 13.141c-42.614 72.503-103.89 133.31-177.207 175.85-61.718 35.81-130.766 57.829-202.046 64.693l-30.923 53.248zM761.121 41.927l-75.604-44.473-78.792 133.947c-31.296-5.182-63.098-7.817-95.082-7.817-103.66 0-205.402 27.677-294.229 80.041-86.196 50.813-158.235 123.446-208.334 210.050l-9.080 15.696 9.080 15.696c50.099 86.605 122.138 159.238 208.334 210.050 20.207 11.912 41.082 22.547 62.496 31.869l-76.497 130.045 81.259 47.799 476.448-822.903zM307.357 640.328c-15.584-6.986-30.816-14.785-45.626-23.378-73.318-42.538-134.594-103.345-177.207-175.85l-7.724-13.141 7.724-13.141c42.614-72.503 103.89-133.31 177.207-175.85 75.555-43.838 162.096-67.009 250.269-67.009 22.878 0 45.646 1.56 68.141 4.636l-272.784 463.732z" />
<glyph unicode="&#xe92e;" glyph-name="icon_visible" d="M1014.913 444.873l9.087-15.769-9.087-15.769c-50.134-87.005-122.223-159.974-208.479-211.020-88.889-52.606-190.702-80.411-294.434-80.411s-205.545 27.805-294.434 80.411c-86.256 51.048-158.346 124.017-208.479 211.020l-9.087 15.769 9.087 15.769c50.134 87.005 122.223 159.974 208.479 211.020 88.889 52.606 190.702 80.411 294.434 80.411s205.545-27.805 294.434-80.411c86.256-51.048 158.346-124.017 208.479-211.020zM940.133 440.887c-42.643 72.838-103.962 133.926-177.331 176.662-75.608 44.041-162.21 67.319-250.444 67.319s-174.836-23.278-250.444-67.319c-73.369-42.735-134.688-103.823-177.331-176.662l-7.729-13.202 7.729-13.202c42.643-72.838 103.962-133.926 177.331-176.662 75.608-44.041 162.21-67.319 250.444-67.319s174.836 23.278 250.444 67.319c73.369 42.735 134.688 103.823 177.331 176.662l7.729 13.202-7.729 13.202zM512.358 299.212c70.754 0 128.072 57.542 128.072 128.473s-57.317 128.473-128.072 128.473c-70.754 0-128.072-57.542-128.072-128.473s57.317-128.473 128.072-128.473zM512.358 350.412c-42.433 0-76.872 34.574-76.872 77.273s34.439 77.273 76.872 77.273c42.433 0 76.872-34.574 76.872-77.273s-34.439-77.273-76.872-77.273z" />
<glyph unicode="&#xe92f;" glyph-name="login" d="M896 955.733h-384c-70.4 0-128-57.6-128-128v-128h64v128c0 35.2 28.8 64 64 64h384c35.2 0 64-28.8 64-64v-704c0-35.2-28.8-64-64-64h-384c-35.2 0-64 28.8-64 64v128h-64v-128c0-70.4 57.6-128 128-128h384c70.4 0 128 57.6 128 128v704c0 70.4-57.6 128-128 128zM576 266.146c19.2-19.2 50.624-19.2 69.888 0l174.656 174.656c19.2 19.2 19.2 50.624 0 69.888l-174.656 174.656c-19.264 19.2-50.688 19.2-69.888 0v-177.6h-544c-17.6 0-32-14.4-32-32s14.4-32 32-32h544v-177.6z" />
<glyph unicode="&#xe930;" glyph-name="edit" d="M1016 789.333c-7.2 36-21.6 57.6-43.2 86.4l-36 28.8c-28.8 28.8-57.6 43.2-93.6 43.2s-72-14.4-100.8-50.4l-7.2-7.2 223.2-230.4 21.6 21.6c21.6 28.8 43.2 72 36 108zM677.6 839.733l-540-525.6 230.4-230.4 532.8 525.6zM8-2.667v0c0-14.4 0-36 14.4-43.2s21.6-14.4 36-14.4c7.2 0 7.2 0 14.4 0l244.8 86.4-223.2 230.4c0 0-79.2-208.8-86.4-259.2z" />
<glyph unicode="&#xe931;" glyph-name="Star" d="M512 106.653l-316.433-174.92 60.433 370.487-256 262.38 353.783 54.053 158.217 337.080 158.217-337.080 353.783-54.053-256-262.38 60.433-370.487z" />
<glyph unicode="&#xe932;" glyph-name="menu" d="M0 102.4h1024v113.778h-1024v-113.778zM0 386.844h1024v113.778h-1024v-113.778zM0 785.066v-113.778h1024v113.778h-1024z" />
<glyph unicode="&#xe93a;" glyph-name="clone" horiz-adv-x="853" d="M519.109 13.887h-426.666c-14.219 0-21.333 7.244-21.333 21.735v623.065c0 7.248 7.114 21.735 21.333 21.735h256v-195.61h192.004v-449.19c0-14.491-7.114-21.735-21.338-21.735v0zM419.556 672.377l101.686-115.116h-101.686v115.116zM92.443 752.875c-49.776 0-92.443-43.47-92.443-94.188v-623.065c0-50.713 42.667-94.183 92.443-94.183h419.556c49.781 0 92.447 43.47 92.447 94.183v528.882l-156.447 188.371h-355.556zM751.639 760.119h-104.529v121.019l104.529-121.019zM677.403 955.733h-357.402c-60.353 0-110.482-42.063-120.408-102.724l70.146-11.91c4.138 25.293 24.262 42.177 50.267 42.177h255.995v-195.606h206.219v-456.438c0-30.709-26.744-57.961-56.886-57.961h-14.224v-72.444h14.224c69.411 0 128 59.688 128 130.41v520.815l-175.931 203.682z" />
<glyph unicode="&#xe93c;" glyph-name="phone-numbers" horiz-adv-x="1020" d="M859.95 133.237h-5.244c-60.589 49.934-130 92.427-204.939 124.483l-15.292 2.112c-20.908-5.75-38.424-17.919-50.766-34.222-8.037-13.173-22.056-21.682-38.062-21.682-4.657 0-9.145 0.72-13.36 2.055l-7.178 4.409c-45.978 33.115-85.665 70.9-119.681 113.418l-45.117 54.377c-31.863 40.855-63.048 86.847-91.155 134.859-4.611 9.512-5.411 13.613-5.411 17.9 0 16.207 11.438 29.743 26.681 32.975l9.209 3.785c17.346 8.984 30.897 23.261 38.737 40.665-14.564 84.829-40.633 160.253-76.754 229.607-5.201 13.471-22.389 25.801-42.457 25.801-3.333 0-6.586-0.34-9.727-0.987-93.063-3.318-172.266-60.62-207.348-141.501-16.318-110.139 63.834-277.185 208.407-447.976l52.436-63.672c137.832-164.050 299.634-270.42 421.735-277.162 74.909 0 149.817 88.392 185.024 149.817 4.74 6.859 7.572 15.352 7.572 24.507 0 2.991-0.302 5.911-0.878 8.732-3.638 7.294-9.286 13.422-16.242 17.593zM978.306 593.925h-93.636v139.33h97.381c20.636 2.855 36.356 20.379 36.356 41.574s-15.719 38.719-36.136 41.549l-97.601 0.025v98.13c-2.855 20.636-20.379 36.356-41.574 36.356s-38.719-15.719-41.549-36.136l-0.025-96.103h-141.577v95.883c0.238 1.68 0.375 3.621 0.375 5.593 0 23.168-18.781 41.949-41.949 41.949s-41.949-18.781-41.949-41.949c0-1.972 0.136-3.913 0.399-5.813l-0.025-95.663h-96.632c-1.68 0.238-3.621 0.375-5.593 0.375-23.168 0-41.949-18.781-41.949-41.949s18.781-41.949 41.949-41.949c1.972 0 3.913 0.136 5.813 0.399l97.161-0.025v-141.577h-97.381c-1.68 0.238-3.621 0.375-5.593 0.375-23.168 0-41.949-18.781-41.949-41.949s18.781-41.949 41.949-41.949c1.972 0 3.913 0.136 5.813 0.399l97.161-0.025v-97.381c-0.238-1.68-0.375-3.621-0.375-5.593 0-23.168 18.781-41.949 41.949-41.949s41.949 18.781 41.949 41.949c0 1.972-0.136 3.913-0.399 5.813l0.025 99.409h137.083v-97.381c2.855-20.636 20.379-36.356 41.574-36.356s38.719 15.719 41.549 36.136l0.025 97.601h97.381c17.92 5.040 30.838 21.237 30.838 40.451s-12.918 35.411-30.543 40.379zM797.776 593.925h-137.832v139.33h137.083v-139.33z" />
<glyph unicode="&#xe96c;" glyph-name="mail" d="M954.058 101.273v438.857c-12.191-13.714-25.333-26.286-39.429-37.714-102.096-78.477-183.238-142.857-243.429-193.143-19.429-16.381-35.238-29.143-47.429-38.286s-28.667-18.381-49.429-27.714c-20.762-9.333-40.286-14-58.571-14h-1.143c-18.286 0-37.809 4.667-58.571 14s-37.238 18.571-49.429 27.714c-12.191 9.143-28 21.905-47.429 38.286-60.191 50.286-141.333 114.666-243.429 193.143-14.095 11.429-27.238 24-39.429 37.714v-438.857c0-4.952 1.81-9.238 5.429-12.857s7.905-5.429 12.857-5.429h841.143c4.952 0 9.238 1.81 12.857 5.429s5.429 7.905 5.429 12.857v0zM954.058 701.845v14c0 1.714-0.095 4.19-0.286 7.429s-0.762 5.619-1.714 7.143c-0.952 1.524-2 3.238-3.143 5.143s-2.857 3.333-5.143 4.286c-2.286 0.952-4.952 1.429-8 1.429h-841.143c-4.952 0-9.238-1.81-12.857-5.429s-5.429-7.905-5.429-12.857c0-64 28-118.095 84-162.286 73.524-57.905 149.904-118.285 229.143-181.143 2.286-1.905 8.952-7.524 20-16.857s19.809-16.476 26.286-21.429c6.476-4.952 14.952-10.952 25.429-18s20.095-12.286 28.857-15.714c8.762-3.429 16.952-5.143 24.571-5.143h1.143c7.619 0 15.809 1.714 24.571 5.143s18.381 8.667 28.857 15.714c10.476 7.048 18.952 13.048 25.429 18s15.238 12.095 26.286 21.429c11.048 9.333 17.714 14.952 20 16.857 79.238 62.857 155.619 123.238 229.143 181.143 20.572 16.381 39.714 38.381 57.429 66s26.571 52.667 26.571 75.143v0zM1027.201 722.987v-621.714c0-25.143-8.952-46.667-26.857-64.571s-39.428-26.857-64.571-26.857h-841.143c-25.143 0-46.667 8.952-64.571 26.857s-26.857 39.428-26.857 64.571v621.714c0 25.143 8.952 46.667 26.857 64.571s39.428 26.857 64.571 26.857h841.143c25.143 0 46.667-8.952 64.571-26.857s26.857-39.428 26.857-64.571v0z" />
</font>
</defs>
</svg>
